<svg width="168" height="139" viewBox="0 0 168 139" fill="none" xmlns="http://www.w3.org/2000/svg">
<g clip-path="url(#clip0_21_273)">
<path d="M116.437 84.6058C115.117 88.8832 114.154 92.8052 112.702 96.5358C109.639 104.414 104.821 110.99 97.64 115.688C92.9343 118.767 87.7169 120.166 82.1953 120.287C75.9926 120.421 69.7754 120.421 63.58 120.154C54.063 119.74 46.6893 115.087 40.8982 107.768C34.3186 99.4518 31.332 89.7561 30.4597 79.3333C29.7786 71.1995 30.4105 63.1623 32.9583 55.3711C36.0122 46.0308 40.7963 37.8514 49.146 32.1962C53.5731 29.1964 58.5156 27.5744 63.8095 27.4104C70.3035 27.2099 76.8176 27.1406 83.3062 27.414C93.0035 27.8259 100.545 32.5316 106.383 40.0876C111.309 46.4627 114.241 53.7527 115.815 61.6168C115.869 61.8938 115.822 62.1909 115.822 62.6137C115.276 62.6483 114.771 62.7085 114.265 62.7103C108.818 62.7176 103.371 62.6939 97.9241 62.734C96.8879 62.7413 96.2378 62.528 95.7224 61.4947C92.4736 54.9938 87.2306 51.7698 79.9007 51.9357C75.4518 52.0359 70.9992 51.9594 66.5466 51.9521C59.4844 51.9412 54.5601 55.3128 51.4278 61.5129C51.0053 62.3476 50.6539 63.2188 50.2842 64.079C50.2186 64.2303 50.2223 64.4107 50.1622 64.7752H85.7246C85.7829 65.4495 85.8612 65.9507 85.863 66.4501C85.8721 71.3161 85.8248 76.1822 85.8976 81.0464C85.9176 82.4188 85.5407 82.8452 84.1275 82.8361C73.5269 82.7778 62.9244 82.8051 52.3238 82.8051C51.6282 82.8051 50.9307 82.8051 49.9837 82.8051C51.2057 86.7855 53.2289 89.9639 56.2811 92.4808C59.1711 94.8646 62.5821 95.7704 66.2388 95.8141C70.8644 95.8688 75.4937 95.7704 80.1193 95.8415C87.4565 95.9526 92.6448 92.6011 95.8663 86.1239C96.4509 84.9466 97.101 84.5529 98.3958 84.573C103.608 84.6513 108.822 84.6058 114.034 84.6058C114.609 84.6058 115.183 84.6058 116.439 84.6058H116.437Z" fill="url(#paint0_linear_21_273)"/>
<path d="M155.973 120.079C159.763 120.079 163.455 120.061 167.146 120.115C167.434 120.119 167.96 120.644 167.964 120.93C168.011 126.917 168 132.904 168 139H155.973V120.081V120.079Z" fill="black"/>
<path d="M135.91 120.174C135.828 120.092 135.828 117.728 135.828 117.728C135.828 117.728 141.554 60.5074 123.408 37.81H123.407C117.912 29.3445 110.697 21.4367 102.821 16.4139C94.0123 10.7951 84.6354 6.56327 74.0057 5.91811C72.5233 5.8288 71.8805 5.3586 71.5235 3.88785C70.7058 0.512582 68.5223 -0.631946 65.1843 0.32851C59.3549 2.00156 53.5274 3.67279 47.7035 5.35678C45.0812 6.11676 43.9921 7.8536 44.238 10.5509C44.2835 11.0411 43.9138 11.8048 43.4986 12.0636C40.3591 14.0319 37.1721 15.9218 33.9652 17.7807C33.59 17.9976 32.9271 18.0486 32.5465 17.8664C30.2483 16.7638 28.551 16.988 26.7318 18.7995C22.3884 23.1261 18.0488 27.4582 13.7218 31.8012C11.5675 33.9663 11.5693 36.3939 13.6818 38.6356C13.873 38.8379 14.0533 39.0511 14.1407 39.1495C12.5381 42.7799 10.9993 46.3302 9.3767 49.8403C9.21826 50.1811 8.53171 50.4563 8.08918 50.4563C4.95871 50.4636 3.48362 51.6263 2.98828 54.6407C2.04313 60.4089 1.10527 66.179 0.18015 71.9526C-0.480909 76.0824 0.59536 77.6042 4.71286 78.3204C5.5961 78.4735 6.0623 78.7925 6.2353 79.7602C6.8308 83.0735 7.57381 86.3595 8.16203 89.6728C8.25672 90.2049 8.01634 90.9759 7.6503 91.3786C6.34275 92.8202 5.90022 94.4185 6.63048 96.2009C9.10353 102.233 11.5547 108.277 14.2208 114.222C14.6961 115.284 16.062 116.367 17.1929 116.604C18.4239 116.861 19.8917 116.248 21.192 115.82C22.0916 115.523 22.6689 115.483 23.3901 116.247C32.1423 125.494 42.7301 131.938 54.5928 136.316C57.7178 137.47 61.0631 138.734 64.3102 138.743C105.531 138.862 150.078 139 153.404 139V120.174H135.91ZM126.451 128.215C126.444 128.625 125.985 129.086 125.637 129.42C124.25 130.75 122.52 131.096 120.66 131.096C101.996 131.089 83.3279 131.178 64.6653 130.996C62.0192 130.969 59.313 129.833 56.7599 128.878C46.6983 125.115 37.6201 119.722 29.9843 112.077C29.4871 111.579 29.345 110.686 29.1302 109.952C28.8625 109.044 28.8133 108.058 28.4618 107.192C26.2546 101.781 24.0092 96.385 21.7347 91.0032C20.4053 87.8576 19.0394 87.1377 15.3572 87.7045C14.9256 85.6797 14.5158 83.6184 14.0369 81.5736C13.6818 80.0573 13.5725 78.7797 14.891 77.473C15.6212 76.7476 15.7669 75.3279 15.9654 74.1834C16.9179 68.6448 17.7956 63.0935 18.7098 57.5476C19.0285 55.6212 18.9083 53.8589 17.2529 52.4738C16.9944 52.2569 16.9215 51.5571 17.0545 51.1853C17.5115 49.9205 18.0834 48.6939 18.6388 47.4674C19.3345 45.9256 19.7497 44.1942 22.2118 44.617C22.9821 44.7482 24.1076 43.9372 24.7905 43.272C29.2576 38.9108 33.6483 34.473 38.0626 30.0589C39.8983 28.2236 40.1733 26.1861 38.6053 23.7676C41.1767 22.2841 43.6261 20.828 46.1319 19.4757C46.4543 19.3007 47.19 19.5176 47.5178 19.8037C48.8873 21.0011 50.4079 21.218 52.0851 20.735C58.1257 18.9982 64.1626 17.254 70.1978 15.4971C70.6767 15.3568 71.2922 15.2347 71.5563 14.8866C72.9276 13.0696 74.7432 13.6564 76.4678 13.8952C82.6759 14.7609 88.3741 17.1173 93.8484 20.0406C94.8245 20.5619 95.7933 21.1305 96.7494 21.7428C96.753 21.7428 96.7567 21.7447 96.7585 21.7483H96.7621C96.8386 21.7902 97.2775 22.029 98.0096 22.501L98.0387 22.5192C100.426 24.0665 105.851 28.0596 111.965 35.7524C111.97 35.7597 111.976 35.7651 111.981 35.7724C115.539 40.1738 118.606 44.9104 120.983 49.5213C132.366 70.5785 127.109 117.542 127.109 117.542C127.113 120.008 126.497 125.829 126.451 128.215Z" fill="black"/>
</g>
<defs>
<linearGradient id="paint0_linear_21_273" x1="73.3193" y1="120.376" x2="73.3193" y2="27.2317" gradientUnits="userSpaceOnUse">
<stop offset="0.12" stop-color="#931004"/>
<stop offset="0.23" stop-color="#9E0E06"/>
<stop offset="0.75" stop-color="#CD0A10"/>
<stop offset="1" stop-color="#E00914"/>
</linearGradient>
<clipPath id="clip0_21_273">
<rect width="168" height="139" fill="white"/>
</clipPath>
</defs>
</svg>
