<svg width="224" height="224" viewBox="0 0 224 224" fill="none" xmlns="http://www.w3.org/2000/svg">
<circle cx="112" cy="112" r="112" fill="white"/>
<g clip-path="url(#clip0_30_4)">
<path d="M148.437 114.606C147.117 118.883 146.154 122.805 144.702 126.536C141.639 134.414 136.821 140.99 129.64 145.688C124.934 148.767 119.717 150.166 114.195 150.287C107.993 150.421 101.775 150.421 95.58 150.154C86.063 149.74 78.6893 145.087 72.8982 137.768C66.3186 129.452 63.332 119.756 62.4597 109.333C61.7786 101.199 62.4105 93.1623 64.9583 85.3711C68.0122 76.0308 72.7963 67.8514 81.146 62.1962C85.5731 59.1964 90.5156 57.5744 95.8095 57.4104C102.304 57.2099 108.818 57.1406 115.306 57.414C125.004 57.8259 132.545 62.5316 138.383 70.0876C143.309 76.4627 146.241 83.7527 147.815 91.6168C147.869 91.8938 147.822 92.1909 147.822 92.6137C147.276 92.6483 146.771 92.7085 146.265 92.7103C140.818 92.7176 135.371 92.6939 129.924 92.734C128.888 92.7413 128.238 92.528 127.722 91.4947C124.474 84.9938 119.231 81.7698 111.901 81.9357C107.452 82.0359 102.999 81.9594 98.5466 81.9521C91.4844 81.9412 86.5601 85.3128 83.4278 91.5129C83.0053 92.3476 82.6539 93.2188 82.2842 94.079C82.2186 94.2303 82.2223 94.4107 82.1622 94.7752H117.725C117.783 95.4495 117.861 95.9507 117.863 96.4501C117.872 101.316 117.825 106.182 117.898 111.046C117.918 112.419 117.541 112.845 116.127 112.836C105.527 112.778 94.9244 112.805 84.3238 112.805C83.6282 112.805 82.9307 112.805 81.9837 112.805C83.2057 116.785 85.2289 119.964 88.2811 122.481C91.1711 124.865 94.5821 125.77 98.2388 125.814C102.864 125.869 107.494 125.77 112.119 125.841C119.456 125.953 124.645 122.601 127.866 116.124C128.451 114.947 129.101 114.553 130.396 114.573C135.608 114.651 140.822 114.606 146.034 114.606C146.609 114.606 147.183 114.606 148.439 114.606H148.437Z" fill="url(#paint0_linear_30_4)"/>
<path d="M187.973 150.079C191.763 150.079 195.455 150.061 199.146 150.115C199.434 150.119 199.96 150.644 199.964 150.93C200.011 156.917 200 162.904 200 169H187.973V150.081V150.079Z" fill="black"/>
<path d="M167.91 150.174C167.828 150.092 167.828 147.728 167.828 147.728C167.828 147.728 173.554 90.5074 155.408 67.81H155.407C149.912 59.3445 142.697 51.4367 134.821 46.4139C126.012 40.7951 116.635 36.5633 106.006 35.9181C104.523 35.8288 103.88 35.3586 103.524 33.8878C102.706 30.5126 100.522 29.3681 97.1843 30.3285C91.3549 32.0016 85.5274 33.6728 79.7035 35.3568C77.0812 36.1168 75.9921 37.8536 76.238 40.5509C76.2835 41.0411 75.9138 41.8048 75.4986 42.0636C72.3591 44.0319 69.1721 45.9218 65.9652 47.7807C65.59 47.9976 64.9271 48.0486 64.5465 47.8664C62.2483 46.7638 60.551 46.988 58.7318 48.7995C54.3884 53.1261 50.0488 57.4582 45.7218 61.8012C43.5675 63.9663 43.5693 66.3939 45.6818 68.6356C45.873 68.8379 46.0533 69.0511 46.1407 69.1495C44.5381 72.7799 42.9993 76.3302 41.3767 79.8403C41.2183 80.1811 40.5317 80.4563 40.0892 80.4563C36.9587 80.4636 35.4836 81.6263 34.9883 84.6407C34.0431 90.4089 33.1053 96.179 32.1801 101.953C31.5191 106.082 32.5954 107.604 36.7129 108.32C37.5961 108.474 38.0623 108.792 38.2353 109.76C38.8308 113.074 39.5738 116.359 40.162 119.673C40.2567 120.205 40.0163 120.976 39.6503 121.379C38.3427 122.82 37.9002 124.419 38.6305 126.201C41.1035 132.233 43.5547 138.277 46.2208 144.222C46.6961 145.284 48.062 146.367 49.1929 146.604C50.4239 146.861 51.8917 146.248 53.192 145.82C54.0916 145.523 54.6689 145.483 55.3901 146.247C64.1423 155.494 74.7301 161.938 86.5928 166.316C89.7178 167.47 93.0631 168.734 96.3102 168.743C137.531 168.862 182.078 169 185.404 169V150.174H167.91ZM158.451 158.215C158.444 158.625 157.985 159.086 157.637 159.42C156.25 160.75 154.52 161.096 152.66 161.096C133.996 161.089 115.328 161.178 96.6653 160.996C94.0192 160.969 91.313 159.833 88.7599 158.878C78.6983 155.115 69.6201 149.722 61.9843 142.077C61.4871 141.579 61.345 140.686 61.1302 139.952C60.8625 139.044 60.8133 138.058 60.4618 137.192C58.2546 131.781 56.0092 126.385 53.7347 121.003C52.4053 117.858 51.0394 117.138 47.3572 117.704C46.9256 115.68 46.5158 113.618 46.0369 111.574C45.6818 110.057 45.5725 108.78 46.891 107.473C47.6212 106.748 47.7669 105.328 47.9654 104.183C48.9179 98.6448 49.7956 93.0935 50.7098 87.5476C51.0285 85.6212 50.9083 83.8589 49.2529 82.4738C48.9944 82.2569 48.9215 81.5571 49.0545 81.1853C49.5115 79.9205 50.0834 78.6939 50.6388 77.4674C51.3345 75.9256 51.7497 74.1942 54.2118 74.617C54.9821 74.7482 56.1076 73.9372 56.7905 73.272C61.2576 68.9108 65.6483 64.473 70.0626 60.0589C71.8983 58.2236 72.1733 56.1861 70.6053 53.7676C73.1767 52.2841 75.6261 50.828 78.1319 49.4757C78.4543 49.3007 79.19 49.5176 79.5178 49.8037C80.8873 51.0011 82.4079 51.218 84.0851 50.735C90.1257 48.9982 96.1626 47.254 102.198 45.4971C102.677 45.3568 103.292 45.2347 103.556 44.8866C104.928 43.0696 106.743 43.6564 108.468 43.8952C114.676 44.7609 120.374 47.1173 125.848 50.0406C126.824 50.5619 127.793 51.1305 128.749 51.7428C128.753 51.7428 128.757 51.7447 128.758 51.7483H128.762C128.839 51.7902 129.277 52.029 130.01 52.501L130.039 52.5192C132.426 54.0665 137.851 58.0596 143.965 65.7524C143.97 65.7597 143.976 65.7651 143.981 65.7724C147.539 70.1738 150.606 74.9104 152.983 79.5213C164.366 100.578 159.109 147.542 159.109 147.542C159.113 150.008 158.497 155.829 158.451 158.215Z" fill="black"/>
</g>
<defs>
<linearGradient id="paint0_linear_30_4" x1="105.319" y1="150.376" x2="105.319" y2="57.2317" gradientUnits="userSpaceOnUse">
<stop offset="0.12" stop-color="#931004"/>
<stop offset="0.23" stop-color="#9E0E06"/>
<stop offset="0.75" stop-color="#CD0A10"/>
<stop offset="1" stop-color="#E00914"/>
</linearGradient>
<clipPath id="clip0_30_4">
<rect width="168" height="139" fill="white" transform="translate(32 30)"/>
</clipPath>
</defs>
</svg>
