<svg width="60" height="61" viewBox="0 0 60 61" fill="none" xmlns="http://www.w3.org/2000/svg">
<path d="M44.0062 36.2448C43.4034 35.9434 39.485 34.1349 38.8822 33.8335C38.2794 33.5321 37.6765 33.5321 37.0737 34.1349C36.4709 34.7378 35.2652 36.5462 34.6624 37.1491C34.361 37.7519 33.7582 37.7519 33.1554 37.4505C31.0455 36.5462 28.9356 35.3406 27.1271 33.8335C25.62 32.3265 24.113 30.518 22.9073 28.7095C22.6059 28.1067 22.9073 27.5039 23.2087 27.2025C23.5102 26.901 23.8116 26.2982 24.4144 25.9968C24.7158 25.6954 25.0172 25.0926 25.0172 24.7912C25.3186 24.4897 25.3186 23.8869 25.0172 23.5855C24.7158 23.2841 23.2087 19.6672 22.6059 18.1601C22.3045 16.0502 21.7017 16.0502 21.0989 16.0502H19.5918C18.989 16.0502 18.0847 16.653 17.7833 16.9544C15.9749 18.7629 15.0706 20.8728 15.0706 23.2841C15.372 25.9968 16.2763 28.7095 18.0847 31.1208C21.4003 35.9434 25.62 39.8618 30.7441 42.2731C32.2511 42.8759 33.4568 43.4787 34.9638 43.7801C36.4709 44.383 37.978 44.383 39.7864 44.0816C41.8963 43.7801 43.7048 42.2731 44.9104 40.4646C45.5133 39.259 45.5133 38.0533 45.2118 36.8477L44.0062 36.2448ZM51.5415 8.81631C39.7864 -2.93877 20.7975 -2.93877 9.04237 8.81631C-0.602825 18.4615 -2.4113 33.2307 4.21977 44.9858L0 60.3578L15.9749 56.138C20.496 58.5493 25.3186 59.755 30.1412 59.755C46.7189 59.755 59.9811 46.4928 59.9811 29.9152C60.2825 22.0785 56.9669 14.5431 51.5415 8.81631ZM43.4034 51.014C39.485 53.4253 34.9638 54.9324 30.1412 54.9324C25.62 54.9324 21.4003 53.7267 17.4819 51.6169L16.5777 51.014L7.2339 53.4253L9.64519 44.383L9.04237 43.4787C1.80847 31.4222 5.42542 16.3516 17.1805 8.81631C28.9356 1.281 44.0062 5.19936 51.2401 16.653C58.474 28.4081 55.1585 43.7801 43.4034 51.014Z" fill="white"/>
</svg>
